<svg width="1280" height="340" viewBox="0 0 1280 340" fill="none" xmlns="http://www.w3.org/2000/svg">
  <defs>
    <linearGradient id="bg" x1="0" y1="0" x2="1280" y2="340" gradientUnits="userSpaceOnUse">
      <stop stop-color="#0B1220"/>
      <stop offset="0.58" stop-color="#111827"/>
      <stop offset="1" stop-color="#0A3A36"/>
    </linearGradient>
    <radialGradient id="glowA" cx="0" cy="0" r="1" gradientUnits="userSpaceOnUse" gradientTransform="translate(1080 44) rotate(90) scale(190 260)">
      <stop stop-color="#34D399" stop-opacity="0.30"/>
      <stop offset="1" stop-color="#34D399" stop-opacity="0"/>
    </radialGradient>
    <radialGradient id="glowB" cx="0" cy="0" r="1" gradientUnits="userSpaceOnUse" gradientTransform="translate(280 326) rotate(90) scale(140 280)">
      <stop stop-color="#38BDF8" stop-opacity="0.14"/>
      <stop offset="1" stop-color="#38BDF8" stop-opacity="0"/>
    </radialGradient>
    <pattern id="grid" width="32" height="32" patternUnits="userSpaceOnUse">
      <path d="M32 0H0V32" fill="none" stroke="#FFFFFF" stroke-opacity="0.05"/>
    </pattern>
  </defs>

  <rect width="1280" height="340" rx="28" fill="url(#bg)"/>
  <rect width="1280" height="340" rx="28" fill="url(#grid)"/>
  <rect x="24" y="24" width="1232" height="292" rx="24" fill="#FFFFFF" fill-opacity="0.02" stroke="#FFFFFF" stroke-opacity="0.08"/>

  <circle cx="1096" cy="44" r="190" fill="url(#glowA)"/>
  <circle cx="260" cy="330" r="150" fill="url(#glowB)"/>

  <path d="M756 294C828 240 900 218 972 220C1048 222 1118 258 1220 196" stroke="#34D399" stroke-opacity="0.22" stroke-width="2"/>
  <path d="M742 268C820 219 892 198 966 200C1044 202 1118 236 1212 180" stroke="#38BDF8" stroke-opacity="0.16" stroke-width="2"/>

  <text x="72" y="78" fill="#93C5FD" font-family="Avenir Next, Segoe UI, Arial, sans-serif" font-size="16" font-weight="700" letter-spacing="1.8">BERQIAMOUAD</text>
  <text x="72" y="138" fill="#F8FAFC" font-family="Avenir Next, Segoe UI, Arial, sans-serif" font-size="56" font-weight="700">Mouad Berqia</text>
  <text x="72" y="178" fill="#D1D5DB" font-family="Avenir Next, Segoe UI, Arial, sans-serif" font-size="26" font-weight="500">AI Software Engineer</text>
  <text x="72" y="214" fill="#94A3B8" font-family="Avenir Next, Segoe UI, Arial, sans-serif" font-size="18">Agentic systems, AI product engineering, algorithms, and data platforms</text>

  <g transform="translate(72 246)">
    <rect x="0" y="0" width="126" height="36" rx="18" fill="#0F172A" fill-opacity="0.76" stroke="#38BDF8" stroke-opacity="0.28"/>
    <text x="24" y="23" fill="#E2E8F0" font-family="Avenir Next, Segoe UI, Arial, sans-serif" font-size="15" font-weight="600">AI Systems</text>

    <rect x="140" y="0" width="124" height="36" rx="18" fill="#0F172A" fill-opacity="0.76" stroke="#34D399" stroke-opacity="0.28"/>
    <text x="164" y="23" fill="#E2E8F0" font-family="Avenir Next, Segoe UI, Arial, sans-serif" font-size="15" font-weight="600">Algorithms</text>

    <rect x="278" y="0" width="150" height="36" rx="18" fill="#0F172A" fill-opacity="0.76" stroke="#22C55E" stroke-opacity="0.28"/>
    <text x="302" y="23" fill="#E2E8F0" font-family="Avenir Next, Segoe UI, Arial, sans-serif" font-size="15" font-weight="600">Data Platforms</text>

    <rect x="442" y="0" width="146" height="36" rx="18" fill="#0F172A" fill-opacity="0.76" stroke="#A78BFA" stroke-opacity="0.24"/>
    <text x="466" y="23" fill="#E2E8F0" font-family="Avenir Next, Segoe UI, Arial, sans-serif" font-size="15" font-weight="600">Quant Research</text>
  </g>

  <g transform="translate(842 64)">
    <rect width="170" height="78" rx="18" fill="#0F172A" fill-opacity="0.76" stroke="#FFFFFF" stroke-opacity="0.08"/>
    <circle cx="22" cy="22" r="6" fill="#38BDF8"/>
    <text x="38" y="27" fill="#93C5FD" font-family="Avenir Next, Segoe UI, Arial, sans-serif" font-size="13" font-weight="700" letter-spacing="0.9">CURRENT ROLE</text>
    <text x="22" y="55" fill="#F8FAFC" font-family="Avenir Next, Segoe UI, Arial, sans-serif" font-size="18" font-weight="600">OCP Rock Solutions</text>
  </g>

  <g transform="translate(1030 64)">
    <rect width="170" height="78" rx="18" fill="#0F172A" fill-opacity="0.76" stroke="#FFFFFF" stroke-opacity="0.08"/>
    <circle cx="22" cy="22" r="6" fill="#34D399"/>
    <text x="38" y="27" fill="#A7F3D0" font-family="Avenir Next, Segoe UI, Arial, sans-serif" font-size="13" font-weight="700" letter-spacing="0.9">RESEARCH</text>
    <text x="22" y="55" fill="#F8FAFC" font-family="Avenir Next, Segoe UI, Arial, sans-serif" font-size="18" font-weight="600">Springer 2024</text>
  </g>

  <g transform="translate(842 158)">
    <rect width="170" height="78" rx="18" fill="#0F172A" fill-opacity="0.76" stroke="#FFFFFF" stroke-opacity="0.08"/>
    <circle cx="22" cy="22" r="6" fill="#FACC15"/>
    <text x="38" y="27" fill="#FDE68A" font-family="Avenir Next, Segoe UI, Arial, sans-serif" font-size="13" font-weight="700" letter-spacing="0.9">KAGGLE</text>
    <text x="22" y="55" fill="#F8FAFC" font-family="Avenir Next, Segoe UI, Arial, sans-serif" font-size="18" font-weight="600">Silver Medal</text>
  </g>

  <g transform="translate(1030 158)">
    <rect width="170" height="78" rx="18" fill="#0F172A" fill-opacity="0.76" stroke="#FFFFFF" stroke-opacity="0.08"/>
    <circle cx="22" cy="22" r="6" fill="#60A5FA"/>
    <text x="38" y="27" fill="#93C5FD" font-family="Avenir Next, Segoe UI, Arial, sans-serif" font-size="13" font-weight="700" letter-spacing="0.9">CODEFORCES</text>
    <text x="22" y="55" fill="#F8FAFC" font-family="Avenir Next, Segoe UI, Arial, sans-serif" font-size="18" font-weight="600">Expert · 1729 max</text>
  </g>

  <text x="842" y="274" fill="#94A3B8" font-family="Avenir Next, Segoe UI, Arial, sans-serif" font-size="15">Casablanca, Morocco</text>
</svg>
