<svg width="1280" height="260" viewBox="0 0 1280 260" fill="none" xmlns="http://www.w3.org/2000/svg">
  <defs>
    <linearGradient id="bg" x1="0" y1="0" x2="1280" y2="260" gradientUnits="userSpaceOnUse">
      <stop stop-color="#0B1220"/>
      <stop offset="0.55" stop-color="#111827"/>
      <stop offset="1" stop-color="#0B3A36"/>
    </linearGradient>
    <radialGradient id="glow" cx="0" cy="0" r="1" gradientUnits="userSpaceOnUse" gradientTransform="translate(1080 42) rotate(90) scale(180 260)">
      <stop stop-color="#34D399" stop-opacity="0.32"/>
      <stop offset="1" stop-color="#34D399" stop-opacity="0"/>
    </radialGradient>
    <pattern id="grid" width="28" height="28" patternUnits="userSpaceOnUse">
      <path d="M28 0H0V28" stroke="#FFFFFF" stroke-opacity="0.05" fill="none"/>
    </pattern>
  </defs>

  <rect width="1280" height="260" rx="24" fill="url(#bg)"/>
  <rect width="1280" height="260" rx="24" fill="url(#grid)"/>
  <circle cx="1080" cy="44" r="180" fill="url(#glow)"/>

  <path d="M776 206C862 165 944 154 1026 164C1095 172 1158 191 1234 155" stroke="#34D399" stroke-opacity="0.22" stroke-width="2"/>
  <path d="M760 184C847 146 930 138 1013 148C1087 157 1153 176 1224 142" stroke="#38BDF8" stroke-opacity="0.16" stroke-width="2"/>

  <text x="72" y="72" fill="#93C5FD" font-family="Avenir Next, Segoe UI, Arial, sans-serif" font-size="15" font-weight="700" letter-spacing="1.6">BERQIAMOUAD</text>
  <text x="72" y="128" fill="#F8FAFC" font-family="Avenir Next, Segoe UI, Arial, sans-serif" font-size="52" font-weight="700">Mouad Berqia</text>
  <text x="72" y="166" fill="#D1D5DB" font-family="Avenir Next, Segoe UI, Arial, sans-serif" font-size="24" font-weight="500">AI Software Engineer</text>
  <text x="72" y="202" fill="#94A3B8" font-family="Avenir Next, Segoe UI, Arial, sans-serif" font-size="18">Algorithms, AI systems, data engineering, and production software</text>

  <rect x="916" y="70" width="288" height="48" rx="14" fill="#0F172A" fill-opacity="0.72" stroke="#FFFFFF" stroke-opacity="0.08"/>
  <text x="940" y="100" fill="#E5E7EB" font-family="Avenir Next, Segoe UI, Arial, sans-serif" font-size="16" font-weight="600">OCP Rock Solutions · Casablanca</text>
</svg>
